<svg width="110" height="28" viewBox="0 0 110 28" fill="none" xmlns="http://www.w3.org/2000/svg">
<path d="M34.4817 8.68005H36.9418L41.1003 18.9243H38.799L37.7634 16.231H33.5312L32.4761 18.9243H30.2656L34.4817 8.68005ZM37.1179 14.5336L35.668 10.7581L34.1871 14.5336H37.1179Z" fill="#1C3664"/>
<path d="M41.832 11.2998H43.8377V11.9001C44.4387 11.405 45.1968 11.1403 45.9756 11.1538C46.3776 11.1364 46.7788 11.2029 47.1536 11.3492C47.5284 11.4954 47.8685 11.7182 48.1523 12.0033C48.4361 12.2883 48.6573 12.6294 48.8018 13.0046C48.9463 13.3799 49.0109 13.7812 48.9915 14.1829V18.9243H46.9859V14.4761C47.0018 14.2639 46.972 14.0507 46.8984 13.8509C46.8248 13.6512 46.7091 13.4696 46.5592 13.3184C46.4093 13.1672 46.2287 13.0499 46.0296 12.9744C45.8304 12.899 45.6174 12.8671 45.4049 12.8811C45.1009 12.8675 44.7983 12.93 44.5246 13.063C44.2509 13.1959 44.0148 13.3951 43.8377 13.6424V18.9255H41.832V11.2998Z" fill="#1C3664"/>
<path d="M50.8658 16.6852C51.5852 17.2153 52.4477 17.5162 53.3409 17.5489C54.2338 17.5489 54.8195 17.2269 54.8195 16.7439C54.8195 16.3483 54.5272 16.1286 53.8679 16.0263L52.4031 15.8066C50.8946 15.5766 50.0891 14.8257 50.0891 13.5963C50.0891 12.1174 51.3192 11.1813 53.2673 11.1813C54.3829 11.1808 55.4736 11.5118 56.4005 12.1324L55.4351 13.4204C54.7328 12.9616 53.9162 12.7079 53.0774 12.6878C52.3444 12.6878 51.8761 12.9811 51.8761 13.4342C51.8761 13.8447 52.1684 14.0483 52.9117 14.1518L54.3765 14.3714C55.8724 14.5911 56.7043 15.3662 56.7043 16.5564C56.7043 17.9905 55.2832 19.0738 53.3674 19.0738C52.116 19.1217 50.8844 18.7506 49.8682 18.0192L50.8658 16.6852Z" fill="#1C3664"/>
<path d="M57.5586 9.2515C57.5584 9.02559 57.6252 8.8047 57.7506 8.61675C57.876 8.42881 58.0544 8.28226 58.2632 8.19566C58.4719 8.10905 58.7017 8.08627 58.9234 8.1302C59.1452 8.17413 59.3488 8.2828 59.5087 8.44246C59.6687 8.60212 59.7776 8.80559 59.8218 9.02714C59.866 9.24869 59.8434 9.47836 59.757 9.68709C59.6705 9.89582 59.5241 10.0742 59.3361 10.1998C59.1482 10.3253 58.9273 10.3923 58.7012 10.3923C58.3985 10.392 58.1082 10.2717 57.894 10.0579C57.6798 9.84406 57.5592 9.55407 57.5586 9.2515ZM59.7115 18.9241H57.7059V11.2996H59.7115V18.9241Z" fill="#1C3664"/>
<path d="M65.3609 19.0254C64.6136 19.0267 63.8815 18.8136 63.2518 18.4113V18.923H61.2715V8.67996L63.2771 8.24066V11.8988C63.894 11.4378 64.6448 11.191 65.4151 11.1962C65.9294 11.2 66.438 11.3051 66.9117 11.5054C67.3855 11.7057 67.8151 11.9972 68.1761 12.3635C68.5371 12.7297 68.8224 13.1634 69.0156 13.6398C69.2089 14.1162 69.3064 14.626 69.3026 15.1401C69.2987 15.6542 69.1936 16.1624 68.9932 16.6359C68.7928 17.1094 68.501 17.5388 68.1346 17.8995C67.7681 18.2603 67.3342 18.5454 66.8575 18.7386C66.3808 18.9318 65.8707 19.0292 65.3563 19.0254M63.2771 13.6204V16.6207C63.7669 17.0835 64.419 17.3354 65.0929 17.3222C65.6793 17.3222 66.2416 17.0894 66.6563 16.675C67.0709 16.2606 67.3039 15.6985 67.3039 15.1125C67.3039 14.5264 67.0709 13.9644 66.6563 13.55C66.2416 13.1356 65.6793 12.9028 65.0929 12.9028C64.7572 12.8922 64.423 12.9504 64.1107 13.0738C63.7984 13.1972 63.5147 13.3832 63.2771 13.6204Z" fill="#1C3664"/>
<path d="M72.531 18.9242H70.5254V8.67996L72.531 8.24066V18.9242Z" fill="#1C3664"/>
<path d="M77.8513 19.0702C77.3205 19.0872 76.7918 18.9978 76.2962 18.8071C75.8007 18.6164 75.3485 18.3283 74.9662 17.96C74.584 17.5916 74.2796 17.1503 74.0709 16.6623C73.8623 16.1743 73.7536 15.6495 73.7514 15.1188C73.7434 14.6001 73.8393 14.085 74.0333 13.6039C74.2274 13.1228 74.5157 12.6853 74.8814 12.3171C75.2471 11.949 75.6827 11.6576 76.1627 11.4602C76.6427 11.2627 77.1574 11.1632 77.6764 11.1674C78.1976 11.1761 78.7116 11.2905 79.1872 11.5036C79.6628 11.7167 80.0902 12.0242 80.4435 12.4073C80.7967 12.7904 81.0684 13.2413 81.2421 13.7324C81.4158 14.2236 81.4879 14.745 81.454 15.2648V15.7915H75.7732C75.9064 16.2598 76.1915 16.6705 76.5837 16.9592C76.9759 17.2479 77.4529 17.3982 77.9399 17.3866C78.5595 17.4066 79.1628 17.1861 79.6233 16.7713L80.9408 17.9719C80.0821 18.7069 78.9815 19.0982 77.8513 19.0702ZM75.7571 14.3552H79.491C79.3955 13.9292 79.1609 13.5471 78.8243 13.2689C78.4877 12.9908 78.0681 12.8324 77.6315 12.8188C77.1897 12.8196 76.7618 12.973 76.4202 13.253C76.0786 13.533 75.8444 13.9223 75.7571 14.3552Z" fill="#1C3664"/>
<path d="M83.0185 8.68005H90.354V9.6748H84.1404V13.333H88.2103V14.3128H84.1404V18.9231H83.0127L83.0185 8.68005Z" fill="#1C3664"/>
<path d="M93.9413 19.0552C93.4413 19.0605 92.9453 18.9655 92.4827 18.7758C92.0201 18.5862 91.6002 18.3057 91.248 17.951C90.8958 17.5963 90.6183 17.1746 90.4321 16.7108C90.2458 16.247 90.1545 15.7506 90.1636 15.251C90.1496 14.7649 90.2323 14.2808 90.4071 13.8269C90.5818 13.373 90.8451 12.9584 91.1816 12.6071C91.5181 12.2558 91.9212 11.9748 92.3673 11.7806C92.8134 11.5863 93.2936 11.4826 93.7802 11.4755C94.2573 11.4922 94.7263 11.6034 95.1599 11.8029C95.5935 12.0023 95.9832 12.286 96.3061 12.6373C96.629 12.9886 96.8789 13.4006 97.041 13.8493C97.2032 14.298 97.2744 14.7745 97.2506 15.251V15.5868H91.2326C91.2934 16.2744 91.6097 16.9142 92.1192 17.3802C92.6287 17.8462 93.2944 18.1045 93.985 18.1041C94.7157 18.1173 95.4288 17.8799 96.0056 17.4314L96.6788 18.149C95.8963 18.7543 94.9306 19.0732 93.9413 19.0552ZM91.2614 14.7243H96.1667C96.1262 14.1017 95.8502 13.5178 95.3947 13.0912C94.9392 12.6646 94.3383 12.4272 93.714 12.4272C93.0898 12.4272 92.4889 12.6646 92.0334 13.0912C91.5779 13.5178 91.3019 14.1017 91.2614 14.7243Z" fill="#1C3664"/>
<path d="M98.744 17.2118C99.3864 17.8291 100.239 18.1794 101.131 18.1916C102.302 18.1916 103.121 17.65 103.121 16.8749C103.121 16.2458 102.697 15.8939 101.76 15.7628L100.486 15.5869C99.0213 15.3672 98.3183 14.7232 98.3183 13.6112C98.3183 12.3818 99.4609 11.4745 101.071 11.4745C102.113 11.4668 103.128 11.8068 103.955 12.4405L103.38 13.1719C102.694 12.6584 101.864 12.3717 101.007 12.3519C99.9971 12.3519 99.309 12.8499 99.309 13.5663C99.309 14.1954 99.7048 14.5024 100.671 14.6496L101.945 14.8256C103.41 15.0303 104.142 15.6892 104.142 16.8162C104.142 18.0893 102.853 19.0553 101.17 19.0553C100.032 19.0825 98.9268 18.6744 98.0801 17.9145L98.744 17.2118Z" fill="#1C3664"/>
<path d="M106.124 12.5131H104.543V11.5931H106.124V9.73241L107.193 9.45526V11.592H109.405V12.512H107.193V17.005C107.193 17.7951 107.515 18.1021 108.321 18.1021C108.686 18.1143 109.05 18.0496 109.39 17.9124V18.8634C108.973 18.9944 108.538 19.0589 108.101 19.0543C106.827 19.0543 106.124 18.4402 106.124 17.2833V12.5131Z" fill="#1C3664"/>
<path d="M26.649 14C26.649 16.6156 25.8729 19.1725 24.4189 21.3474C22.9648 23.5222 20.8982 25.2173 18.4802 26.2183C16.0623 27.2192 13.4016 27.4811 10.8347 26.9708C8.26783 26.4606 5.91 25.201 4.05937 23.3515C2.20875 21.5019 0.948448 19.1454 0.437861 16.58C-0.0727251 14.0146 0.18933 11.3555 1.19088 8.93897C2.19243 6.52242 3.88851 4.45696 6.06461 3.00378C8.24072 1.5506 10.7991 0.774963 13.4163 0.774963C16.9258 0.774963 20.2916 2.16831 22.7732 4.64848C25.2548 7.12865 26.649 10.4925 26.649 14Z" fill="#5BBBBD"/>
<path d="M19.7238 19.2451L14.4618 6.57438C14.4013 6.40773 14.2901 6.26421 14.1437 6.16397C13.9974 6.06373 13.8234 6.01181 13.646 6.01548C13.4657 6.0114 13.2885 6.06284 13.1384 6.16282C12.9884 6.2628 12.8727 6.40648 12.8072 6.57438L7.02734 20.4664H9.00421L11.2917 14.7382L18.1198 20.2513C18.3149 20.4457 18.5753 20.5605 18.8505 20.5733C18.9764 20.5764 19.1017 20.5542 19.2189 20.5082C19.3361 20.4621 19.4429 20.393 19.533 20.305C19.6231 20.217 19.6946 20.1119 19.7434 19.9958C19.7922 19.8797 19.8172 19.7551 19.817 19.6292C19.8083 19.4952 19.7781 19.3636 19.7273 19.2393M13.646 8.85023L17.0692 17.2947L11.8993 13.2237L13.646 8.85023Z" fill="white"/>
</svg>
