<svg width="215" height="46" viewBox="0 0 215 46" fill="none" xmlns="http://www.w3.org/2000/svg">
<path d="M139.482 17.6801H141.942L146.1 27.9243H143.799L142.763 25.231H138.531L137.476 27.9243H135.266L139.482 17.6801ZM142.118 23.5336L140.668 19.7581L139.187 23.5336H142.118Z" fill="#1C3664"/>
<path d="M146.832 20.2998H148.838V20.9001C149.439 20.405 150.197 20.1403 150.976 20.1538C151.378 20.1364 151.779 20.2029 152.154 20.3492C152.528 20.4954 152.869 20.7182 153.152 21.0033C153.436 21.2883 153.657 21.6294 153.802 22.0046C153.946 22.3799 154.011 22.7812 153.991 23.1829V27.9243H151.986V23.4761C152.002 23.2639 151.972 23.0507 151.898 22.8509C151.825 22.6512 151.709 22.4696 151.559 22.3184C151.409 22.1672 151.229 22.0499 151.03 21.9744C150.83 21.899 150.617 21.8671 150.405 21.8811C150.101 21.8675 149.798 21.93 149.525 22.063C149.251 22.1959 149.015 22.3951 148.838 22.6424V27.9255H146.832V20.2998Z" fill="#1C3664"/>
<path d="M155.866 25.6852C156.585 26.2153 157.448 26.5162 158.341 26.5489C159.234 26.5489 159.82 26.2269 159.82 25.7439C159.82 25.3483 159.527 25.1286 158.868 25.0263L157.403 24.8066C155.895 24.5766 155.089 23.8257 155.089 22.5963C155.089 21.1174 156.319 20.1813 158.267 20.1813C159.383 20.1808 160.474 20.5118 161.401 21.1324L160.435 22.4204C159.733 21.9616 158.916 21.7079 158.077 21.6878C157.344 21.6878 156.876 21.9811 156.876 22.4342C156.876 22.8447 157.168 23.0483 157.912 23.1518L159.376 23.3714C160.872 23.5911 161.704 24.3662 161.704 25.5564C161.704 26.9905 160.283 28.0738 158.367 28.0738C157.116 28.1217 155.884 27.7506 154.868 27.0192L155.866 25.6852Z" fill="#1C3664"/>
<path d="M162.559 18.2515C162.558 18.0256 162.625 17.8047 162.751 17.6168C162.876 17.4288 163.054 17.2823 163.263 17.1957C163.472 17.109 163.702 17.0863 163.923 17.1302C164.145 17.1741 164.349 17.2828 164.509 17.4425C164.669 17.6021 164.778 17.8056 164.822 18.0271C164.866 18.2487 164.843 18.4784 164.757 18.6871C164.671 18.8958 164.524 19.0742 164.336 19.1998C164.148 19.3253 163.927 19.3923 163.701 19.3923C163.398 19.392 163.108 19.2717 162.894 19.0579C162.68 18.8441 162.559 18.5541 162.559 18.2515ZM164.711 27.9241H162.706V20.2996H164.711V27.9241Z" fill="#1C3664"/>
<path d="M170.361 28.0254C169.614 28.0267 168.882 27.8136 168.252 27.4113V27.923H166.271V17.68L168.277 17.2407V20.8988C168.894 20.4378 169.645 20.191 170.415 20.1962C170.929 20.2 171.438 20.3051 171.912 20.5054C172.385 20.7057 172.815 20.9972 173.176 21.3635C173.537 21.7297 173.822 22.1634 174.016 22.6398C174.209 23.1162 174.306 23.626 174.303 24.1401C174.299 24.6542 174.194 25.1624 173.993 25.6359C173.793 26.1094 173.501 26.5388 173.135 26.8995C172.768 27.2603 172.334 27.5454 171.858 27.7386C171.381 27.9318 170.871 28.0292 170.356 28.0254M168.277 22.6204V25.6207C168.767 26.0835 169.419 26.3354 170.093 26.3222C170.679 26.3222 171.242 26.0894 171.656 25.675C172.071 25.2606 172.304 24.6985 172.304 24.1125C172.304 23.5264 172.071 22.9644 171.656 22.55C171.242 22.1356 170.679 21.9028 170.093 21.9028C169.757 21.8922 169.423 21.9504 169.111 22.0738C168.798 22.1972 168.515 22.3832 168.277 22.6204Z" fill="#1C3664"/>
<path d="M177.531 27.9242H175.525V17.68L177.531 17.2407V27.9242Z" fill="#1C3664"/>
<path d="M182.851 28.0702C182.321 28.0872 181.792 27.9978 181.296 27.8071C180.801 27.6164 180.348 27.3283 179.966 26.96C179.584 26.5916 179.28 26.1503 179.071 25.6623C178.862 25.1743 178.754 24.6495 178.751 24.1188C178.743 23.6001 178.839 23.085 179.033 22.6039C179.227 22.1228 179.516 21.6853 179.881 21.3171C180.247 20.949 180.683 20.6576 181.163 20.4602C181.643 20.2627 182.157 20.1632 182.676 20.1674C183.198 20.1761 183.712 20.2905 184.187 20.5036C184.663 20.7167 185.09 21.0242 185.443 21.4073C185.797 21.7904 186.068 22.2413 186.242 22.7324C186.416 23.2236 186.488 23.745 186.454 24.2648V24.7915H180.773C180.906 25.2598 181.192 25.6705 181.584 25.9592C181.976 26.2479 182.453 26.3982 182.94 26.3866C183.559 26.4066 184.163 26.1861 184.623 25.7713L185.941 26.9719C185.082 27.7069 183.982 28.0982 182.851 28.0702ZM180.757 23.3552H184.491C184.395 22.9292 184.161 22.5471 183.824 22.2689C183.488 21.9908 183.068 21.8324 182.632 21.8188C182.19 21.8196 181.762 21.973 181.42 22.253C181.079 22.533 180.844 22.9223 180.757 23.3552Z" fill="#1C3664"/>
<path d="M188.018 17.6801H195.354V18.6748H189.14V22.333H193.21V23.3128H189.14V27.9231H188.013L188.018 17.6801Z" fill="#1C3664"/>
<path d="M198.941 28.0552C198.441 28.0605 197.945 27.9655 197.483 27.7758C197.02 27.5862 196.6 27.3057 196.248 26.951C195.896 26.5963 195.618 26.1746 195.432 25.7108C195.246 25.247 195.155 24.7506 195.164 24.251C195.15 23.7649 195.232 23.2808 195.407 22.8269C195.582 22.373 195.845 21.9584 196.182 21.6071C196.518 21.2558 196.921 20.9748 197.367 20.7806C197.813 20.5863 198.294 20.4826 198.78 20.4755C199.257 20.4922 199.726 20.6034 200.16 20.8029C200.594 21.0023 200.983 21.286 201.306 21.6373C201.629 21.9886 201.879 22.4006 202.041 22.8493C202.203 23.298 202.274 23.7745 202.251 24.251V24.5868H196.233C196.293 25.2744 196.61 25.9142 197.119 26.3802C197.629 26.8462 198.294 27.1045 198.985 27.1041C199.716 27.1173 200.429 26.8799 201.006 26.4314L201.679 27.149C200.896 27.7543 199.931 28.0732 198.941 28.0552ZM196.261 23.7243H201.167C201.126 23.1017 200.85 22.5178 200.395 22.0912C199.939 21.6646 199.338 21.4272 198.714 21.4272C198.09 21.4272 197.489 21.6646 197.033 22.0912C196.578 22.5178 196.302 23.1017 196.261 23.7243Z" fill="#1C3664"/>
<path d="M203.744 26.2118C204.386 26.8291 205.239 27.1794 206.131 27.1916C207.302 27.1916 208.121 26.65 208.121 25.8749C208.121 25.2458 207.697 24.8939 206.76 24.7628L205.486 24.5869C204.021 24.3672 203.318 23.7232 203.318 22.6112C203.318 21.3818 204.461 20.4745 206.071 20.4745C207.113 20.4668 208.128 20.8068 208.955 21.4405L208.38 22.1719C207.694 21.6584 206.864 21.3717 206.007 21.3519C204.997 21.3519 204.309 21.8499 204.309 22.5663C204.309 23.1954 204.705 23.5024 205.671 23.6496L206.945 23.8256C208.41 24.0303 209.142 24.6892 209.142 25.8162C209.142 27.0893 207.853 28.0553 206.17 28.0553C205.032 28.0825 203.927 27.6744 203.08 26.9145L203.744 26.2118Z" fill="#1C3664"/>
<path d="M211.124 21.5131H209.543V20.5931H211.124V18.7324L212.193 18.4553V20.592H214.405V21.512H212.193V26.005C212.193 26.7951 212.515 27.1021 213.321 27.1021C213.686 27.1143 214.05 27.0496 214.39 26.9124V27.8634C213.973 27.9944 213.538 28.0589 213.101 28.0543C211.827 28.0543 211.124 27.4402 211.124 26.2833V21.5131Z" fill="#1C3664"/>
<path d="M131.649 23C131.649 25.6156 130.873 28.1725 129.419 30.3474C127.965 32.5222 125.898 34.2173 123.48 35.2183C121.062 36.2192 118.402 36.4811 115.835 35.9708C113.268 35.4606 110.91 34.201 109.059 32.3515C107.209 30.5019 105.948 28.1454 105.438 25.58C104.927 23.0146 105.189 20.3555 106.191 17.939C107.192 15.5224 108.889 13.457 111.065 12.0038C113.241 10.5506 115.799 9.77496 118.416 9.77496C121.926 9.77496 125.292 11.1683 127.773 13.6485C130.255 16.1286 131.649 19.4925 131.649 23Z" fill="#5BBBBD"/>
<path d="M124.724 28.2451L119.462 15.5744C119.401 15.4077 119.29 15.2642 119.144 15.164C118.997 15.0637 118.823 15.0118 118.646 15.0155C118.466 15.0114 118.289 15.0628 118.138 15.1628C117.988 15.2628 117.873 15.4065 117.807 15.5744L112.027 29.4664H114.004L116.292 23.7382L123.12 29.2513C123.315 29.4457 123.575 29.5605 123.85 29.5733C123.976 29.5764 124.102 29.5542 124.219 29.5082C124.336 29.4621 124.443 29.393 124.533 29.305C124.623 29.217 124.695 29.1119 124.743 28.9958C124.792 28.8797 124.817 28.7551 124.817 28.6292C124.808 28.4952 124.778 28.3636 124.727 28.2393M118.646 17.8502L122.069 26.2947L116.899 22.2237L118.646 17.8502Z" fill="white"/>
<path d="M89.184 -6.10352e-05H0.613281V39.3437H38.3451L45.0222 45.9999L51.6994 39.3437H89.184V-6.10352e-05Z" fill="#EE0000"/>
<path d="M74.6078 23.3054H72.6064V20.7857H74.6078V18.2488L77.6391 17.5966V20.7857H80.4095V23.3054H77.6391V27.0541C77.6391 27.9294 77.9755 28.2487 78.9505 28.2487C79.438 28.2487 79.8122 28.1938 80.3169 28.0427V30.4869C79.7539 30.6551 78.7823 30.7856 78.2021 30.7856C75.8265 30.7856 74.6078 29.7214 74.6078 27.6514V23.3054ZM68.1504 18.2145C68.1504 17.3014 68.8988 16.553 69.8154 16.553C70.732 16.553 71.4803 17.2979 71.4803 18.2145C71.4803 19.1311 70.732 19.876 69.8154 19.876C68.8988 19.876 68.1504 19.1311 68.1504 18.2145ZM71.3328 30.6551H68.3014V20.7891H71.3328V30.6551ZM51.0061 20.7891H54.0374V21.4242C54.7309 20.8818 55.5719 20.6038 56.5091 20.6038C57.745 20.6038 58.7749 21.1084 59.4478 21.9666C60.2511 21.0912 61.3565 20.6038 62.6679 20.6038C64.9131 20.6038 66.506 22.2447 66.506 24.5756V30.6551H63.4747V24.9841C63.4747 23.9027 62.8396 23.1921 61.8646 23.1921C61.1918 23.1921 60.6287 23.453 60.2374 23.9371C60.2545 24.143 60.2752 24.349 60.2752 24.5721V30.6517H57.2438V24.9806C57.2438 23.8993 56.6087 23.1887 55.6338 23.1887C54.9609 23.1887 54.4185 23.4324 54.0443 23.8993V30.6517H51.0129V20.7857L51.0061 20.7891ZM33.7108 20.7891H36.7421V21.4242C37.4355 20.8818 38.2766 20.6038 39.2138 20.6038C40.4497 20.6038 41.4796 21.1084 42.1525 21.9666C42.9558 21.0912 44.0612 20.6038 45.3726 20.6038C47.6178 20.6038 49.2106 22.2447 49.2106 24.5756V30.6551H46.1793V24.9841C46.1793 23.9027 45.5443 23.1921 44.5693 23.1921C43.8964 23.1921 43.3334 23.453 42.942 23.9371C42.9592 24.143 42.9798 24.349 42.9798 24.5721V30.6517H39.9485V24.9806C39.9485 23.8993 39.3134 23.1887 38.3384 23.1887C37.6656 23.1887 37.1232 23.4324 36.749 23.8993V30.6517H33.7176V20.7857L33.7108 20.7891ZM25.2313 26.4602C25.2313 27.5415 25.9419 28.2521 27.0268 28.2521C27.7957 28.2521 28.3931 27.9741 28.805 27.4694V20.7926H31.8364V30.6585H28.805V29.9857C28.0738 30.5453 27.1572 30.8439 26.1479 30.8439C23.8272 30.8439 22.2 29.203 22.2 26.8721V20.7926H25.2313V26.4636V26.4602ZM11.0806 26.3297C12.6701 27.6171 13.9265 28.1388 15.4405 28.1388C16.9544 28.1388 17.7989 27.672 17.7989 26.8687C17.7989 26.1409 17.2943 25.7874 15.9829 25.5642L13.0992 25.0596C10.9639 24.6854 9.78636 23.3981 9.78636 21.4791C9.78636 18.9423 11.8084 17.4112 15.159 17.4112C17.1055 17.4112 19.2202 18.1218 20.662 19.2753L18.9593 21.6439C17.5758 20.5797 16.3193 20.0957 14.9358 20.0957C13.6244 20.0957 12.8211 20.5248 12.8211 21.232C12.8211 21.8842 13.2708 22.2035 14.3762 22.3888L17.0917 22.8351C19.6184 23.2471 20.947 24.5344 20.947 26.546C20.947 29.1962 18.7567 30.8371 15.2002 30.8371C13.0855 30.8371 10.9124 30.0338 9.28516 28.6538L11.0806 26.3229V26.3297ZM60.076 14.1054C60.076 15.2417 60.7626 15.7909 62.0122 15.7909C62.3143 15.7909 62.8396 15.7223 63.152 15.6296V14.3148C62.8808 14.3938 62.6782 14.4247 62.4173 14.4247C61.9024 14.4247 61.7135 14.2633 61.7135 13.7827V11.7642H63.2034V10.4082H61.7135V8.69183L60.0794 9.04198V10.4082H59.0015V11.7642H60.0794V14.1054H60.076ZM55.0021 14.1363C55.0021 13.7862 55.3557 13.6145 55.8878 13.6145C56.2414 13.6145 56.5641 13.666 56.8559 13.7347V14.4178C56.5538 14.5894 56.2002 14.6684 55.8397 14.6684C55.3145 14.6684 55.0021 14.4659 55.0021 14.1363ZM55.4999 15.8115C56.0732 15.8115 56.5366 15.6914 56.9726 15.3996V15.7223H58.5861V12.3169C58.5861 11.0227 57.7107 10.3087 56.2482 10.3087C55.4312 10.3087 54.6244 10.5009 53.7593 10.8923L54.343 12.0869C54.9678 11.826 55.493 11.6647 55.9564 11.6647C56.6327 11.6647 56.9726 11.9256 56.9726 12.4577V12.7185C56.5881 12.619 56.1865 12.5675 55.7642 12.5675C54.3945 12.5675 53.5671 13.1408 53.5671 14.1638C53.5671 15.0975 54.3121 15.8115 55.5033 15.8115H55.4999ZM46.6428 15.7223H48.3764V12.9726H51.2773V15.7223H53.011V8.69183H51.2773V11.3935H48.3764V8.69183H46.6428V15.7223ZM40.0377 13.0618C40.0377 12.2997 40.642 11.7162 41.4384 11.7162C41.8813 11.7162 42.2863 11.8672 42.5678 12.1281V13.9853C42.276 14.2668 41.8916 14.4075 41.4384 14.4075C40.6523 14.4075 40.0377 13.8239 40.0377 13.0618ZM42.5885 15.7223H44.2019V8.34167L42.5713 8.69183V10.6897C42.1696 10.4597 41.7062 10.3396 41.2118 10.3396C39.6601 10.3396 38.4414 11.5342 38.4414 13.0618C38.4414 14.5894 39.6395 15.7944 41.1603 15.7944C41.6856 15.7944 42.1765 15.633 42.5919 15.3309V15.7223H42.5885ZM35.1938 11.6441C35.7088 11.6441 36.1413 11.9771 36.313 12.4885H34.085C34.2463 11.9565 34.648 11.6441 35.1938 11.6441ZM32.444 13.0687C32.444 14.6135 33.7142 15.8184 35.3449 15.8184C36.2409 15.8184 36.8966 15.5781 37.5729 15.0151L36.4949 14.0608C36.2443 14.3217 35.8701 14.4624 35.4273 14.4624C34.8231 14.4624 34.3287 14.1294 34.1159 13.618H37.9127V13.2163C37.9127 11.5308 36.773 10.3156 35.2213 10.3156C33.6696 10.3156 32.4406 11.5205 32.4406 13.0653L32.444 13.0687ZM29.6324 10.1679C30.2057 10.1679 30.5284 10.5284 30.5284 10.9609C30.5284 11.3935 30.2057 11.7539 29.6324 11.7539H27.9194V10.1679H29.6324ZM26.1857 15.7223H27.9194V13.1614H29.2376L30.5662 15.7223H32.5024L30.9507 12.9108C31.7883 12.5503 32.2792 11.7951 32.2792 10.9335C32.2792 9.66676 31.2802 8.69526 29.7903 8.69526H26.1823V15.7257L26.1857 15.7223Z" fill="white"/>
</svg>
