<svg width="90" height="46" viewBox="0 0 90 46" fill="none" xmlns="http://www.w3.org/2000/svg">
<path d="M89.184 -6.10352e-05H0.613281V39.3437H38.3451L45.0222 45.9999L51.6994 39.3437H89.184V-6.10352e-05Z" fill="#EE0000"/>
<path d="M74.6078 23.3054H72.6064V20.7857H74.6078V18.2488L77.6391 17.5966V20.7857H80.4095V23.3054H77.6391V27.0541C77.6391 27.9294 77.9755 28.2487 78.9505 28.2487C79.438 28.2487 79.8122 28.1938 80.3169 28.0427V30.4869C79.7539 30.6551 78.7823 30.7856 78.2021 30.7856C75.8265 30.7856 74.6078 29.7214 74.6078 27.6514V23.3054ZM68.1504 18.2145C68.1504 17.3014 68.8988 16.553 69.8154 16.553C70.732 16.553 71.4803 17.2979 71.4803 18.2145C71.4803 19.1311 70.732 19.876 69.8154 19.876C68.8988 19.876 68.1504 19.1311 68.1504 18.2145ZM71.3328 30.6551H68.3014V20.7891H71.3328V30.6551ZM51.0061 20.7891H54.0374V21.4242C54.7309 20.8818 55.5719 20.6038 56.5091 20.6038C57.745 20.6038 58.7749 21.1084 59.4478 21.9666C60.2511 21.0912 61.3565 20.6038 62.6679 20.6038C64.9131 20.6038 66.506 22.2447 66.506 24.5756V30.6551H63.4747V24.9841C63.4747 23.9027 62.8396 23.1921 61.8646 23.1921C61.1918 23.1921 60.6287 23.453 60.2374 23.9371C60.2545 24.143 60.2752 24.349 60.2752 24.5721V30.6517H57.2438V24.9806C57.2438 23.8993 56.6087 23.1887 55.6338 23.1887C54.9609 23.1887 54.4185 23.4324 54.0443 23.8993V30.6517H51.0129V20.7857L51.0061 20.7891ZM33.7108 20.7891H36.7421V21.4242C37.4355 20.8818 38.2766 20.6038 39.2138 20.6038C40.4497 20.6038 41.4796 21.1084 42.1525 21.9666C42.9558 21.0912 44.0612 20.6038 45.3726 20.6038C47.6178 20.6038 49.2106 22.2447 49.2106 24.5756V30.6551H46.1793V24.9841C46.1793 23.9027 45.5443 23.1921 44.5693 23.1921C43.8964 23.1921 43.3334 23.453 42.942 23.9371C42.9592 24.143 42.9798 24.349 42.9798 24.5721V30.6517H39.9485V24.9806C39.9485 23.8993 39.3134 23.1887 38.3384 23.1887C37.6656 23.1887 37.1232 23.4324 36.749 23.8993V30.6517H33.7176V20.7857L33.7108 20.7891ZM25.2313 26.4602C25.2313 27.5415 25.9419 28.2521 27.0268 28.2521C27.7957 28.2521 28.3931 27.9741 28.805 27.4694V20.7926H31.8364V30.6585H28.805V29.9857C28.0738 30.5453 27.1572 30.8439 26.1479 30.8439C23.8272 30.8439 22.2 29.203 22.2 26.8721V20.7926H25.2313V26.4636V26.4602ZM11.0806 26.3297C12.6701 27.6171 13.9265 28.1388 15.4405 28.1388C16.9544 28.1388 17.7989 27.672 17.7989 26.8687C17.7989 26.1409 17.2943 25.7874 15.9829 25.5642L13.0992 25.0596C10.9639 24.6854 9.78636 23.3981 9.78636 21.4791C9.78636 18.9423 11.8084 17.4112 15.159 17.4112C17.1055 17.4112 19.2202 18.1218 20.662 19.2753L18.9593 21.6439C17.5758 20.5797 16.3193 20.0957 14.9358 20.0957C13.6244 20.0957 12.8211 20.5248 12.8211 21.232C12.8211 21.8842 13.2708 22.2035 14.3762 22.3888L17.0917 22.8351C19.6184 23.2471 20.947 24.5344 20.947 26.546C20.947 29.1962 18.7567 30.8371 15.2002 30.8371C13.0855 30.8371 10.9124 30.0338 9.28516 28.6538L11.0806 26.3229V26.3297ZM60.076 14.1054C60.076 15.2417 60.7626 15.7909 62.0122 15.7909C62.3143 15.7909 62.8396 15.7223 63.152 15.6296V14.3148C62.8808 14.3938 62.6782 14.4247 62.4173 14.4247C61.9024 14.4247 61.7135 14.2633 61.7135 13.7827V11.7642H63.2034V10.4082H61.7135V8.69183L60.0794 9.04198V10.4082H59.0015V11.7642H60.0794V14.1054H60.076ZM55.0021 14.1363C55.0021 13.7862 55.3557 13.6145 55.8878 13.6145C56.2414 13.6145 56.5641 13.666 56.8559 13.7347V14.4178C56.5538 14.5894 56.2002 14.6684 55.8397 14.6684C55.3145 14.6684 55.0021 14.4659 55.0021 14.1363ZM55.4999 15.8115C56.0732 15.8115 56.5366 15.6914 56.9726 15.3996V15.7223H58.5861V12.3169C58.5861 11.0227 57.7107 10.3087 56.2482 10.3087C55.4312 10.3087 54.6244 10.5009 53.7593 10.8923L54.343 12.0869C54.9678 11.826 55.493 11.6647 55.9564 11.6647C56.6327 11.6647 56.9726 11.9256 56.9726 12.4577V12.7185C56.5881 12.619 56.1865 12.5675 55.7642 12.5675C54.3945 12.5675 53.5671 13.1408 53.5671 14.1638C53.5671 15.0975 54.3121 15.8115 55.5033 15.8115H55.4999ZM46.6428 15.7223H48.3764V12.9726H51.2773V15.7223H53.011V8.69183H51.2773V11.3935H48.3764V8.69183H46.6428V15.7223ZM40.0377 13.0618C40.0377 12.2997 40.642 11.7162 41.4384 11.7162C41.8813 11.7162 42.2863 11.8672 42.5678 12.1281V13.9853C42.276 14.2668 41.8916 14.4075 41.4384 14.4075C40.6523 14.4075 40.0377 13.8239 40.0377 13.0618ZM42.5885 15.7223H44.2019V8.34167L42.5713 8.69183V10.6897C42.1696 10.4597 41.7062 10.3396 41.2118 10.3396C39.6601 10.3396 38.4414 11.5342 38.4414 13.0618C38.4414 14.5894 39.6395 15.7944 41.1603 15.7944C41.6856 15.7944 42.1765 15.633 42.5919 15.3309V15.7223H42.5885ZM35.1938 11.6441C35.7088 11.6441 36.1413 11.9771 36.313 12.4885H34.085C34.2463 11.9565 34.648 11.6441 35.1938 11.6441ZM32.444 13.0687C32.444 14.6135 33.7142 15.8184 35.3449 15.8184C36.2409 15.8184 36.8966 15.5781 37.5729 15.0151L36.4949 14.0608C36.2443 14.3217 35.8701 14.4624 35.4273 14.4624C34.8231 14.4624 34.3287 14.1294 34.1159 13.618H37.9127V13.2163C37.9127 11.5308 36.773 10.3156 35.2213 10.3156C33.6696 10.3156 32.4406 11.5205 32.4406 13.0653L32.444 13.0687ZM29.6324 10.1679C30.2057 10.1679 30.5284 10.5284 30.5284 10.9609C30.5284 11.3935 30.2057 11.7539 29.6324 11.7539H27.9194V10.1679H29.6324ZM26.1857 15.7223H27.9194V13.1614H29.2376L30.5662 15.7223H32.5024L30.9507 12.9108C31.7883 12.5503 32.2792 11.7951 32.2792 10.9335C32.2792 9.66676 31.2802 8.69526 29.7903 8.69526H26.1823V15.7257L26.1857 15.7223Z" fill="white"/>
</svg>
