<svg width="219" height="80" viewBox="0 0 219 80" fill="none" xmlns="http://www.w3.org/2000/svg">
<mask id="mask0_300_2117" style="mask-type:alpha" maskUnits="userSpaceOnUse" x="0" y="0" width="219" height="80">
<rect width="219" height="80" fill="white"/>
</mask>
<g mask="url(#mask0_300_2117)">
<path d="M191.5 66.5H178.4C178.2 65.6 177.4 65 176.5 65H170.5C169.6 65 168.8 65.6 168.6 66.5H116.5C116.3 65.2 115.3 64.3 114.1 64.1V55.5H157.6C162.3 55.5 166.1 51.7 166.1 47C166.1 42.3 162.3 38.5 157.6 38.5H138.5C138.2 36 136.1 34 133.6 34C131.1 34 128.9 36 128.7 38.5H114V21.5H148.6C148.8 22.4 149.6 23 150.5 23H156.5C157.4 23 158.2 22.4 158.4 21.5H169.5C174.2 21.5 178 17.7 178 13C178 8.3 174.2 4.5 169.5 4.5H45.5C40.8 4.5 37 8.3 37 13V16.1C34.6 16.3 32.8 18.2 32.6 20.5H1.5C-2.60001 20.5 -6 17.1 -6 13C-6 8.3 -9.79999 4.5 -14.5 4.5H-19.5V1C-19.5 0.4 -19.9 0 -20.5 0H-28.5C-29.1 0 -29.5 0.4 -29.5 1V4.5H-116.5C-121.2 4.5 -125 8.3 -125 13C-125 17.7 -121.2 21.5 -116.5 21.5H-99.4C-99.2 22.9 -97.9 24 -96.5 24C-95.1 24 -93.8 22.9 -93.6 21.5H-72.5C-68.4 21.5 -65 24.9 -65 29V54.5H-86V47C-86 42.3 -89.8 38.5 -94.5 38.5H-152.5C-157.2 38.5 -161 42.3 -161 47C-161 51.7 -157.2 55.5 -152.5 55.5H-119.4C-119.1 58 -117 60 -114.5 60C-112 60 -109.8 58 -109.6 55.5H-87V66.5H-161.5V63C-161.5 62.4 -161.9 62 -162.5 62H-170.5C-171.1 62 -171.5 62.4 -171.5 63V66.5H-176.5C-181.2 66.5 -185 70.3 -185 75C-185 79.1 -188.4 82.5 -192.5 82.5H-228V75C-228 70.3 -231.8 66.5 -236.5 66.5H-238V63C-238 58.9 -234.6 55.5 -230.5 55.5H-191.4C-191.2 56.9 -189.9 58 -188.5 58C-187.1 58 -185.8 56.9 -185.6 55.5H-174.5C-169.8 55.5 -166 51.7 -166 47C-166 42.3 -169.8 38.5 -174.5 38.5H-253.6C-253.8 37.6 -254.6 37 -255.5 37H-261.5C-262.4 37 -263.2 37.6 -263.4 38.5H-276.5C-281.2 38.5 -285 42.3 -285 47C-285 51.1 -288.4 54.5 -292.5 54.5H-312V29C-312 24.3 -315.8 20.5 -320.5 20.5H-335.6C-335.8 19.1 -337 18 -338.5 18C-340 18 -341.2 19.1 -341.4 20.5H-392.5C-396.6 20.5 -400 17.1 -400 13C-400 8.9 -396.6 5.5 -392.5 5.5H-377.4C-377.2 6.4 -376.4 7 -375.5 7H-369.5C-368.6 7 -367.8 6.4 -367.6 5.5H-317.5V9C-317.5 9.6 -317.1 10 -316.5 10H-308.5C-307.9 10 -307.5 9.6 -307.5 9V5.5H-256.5C-252.4 5.5 -249 8.9 -249 13C-249 17.7 -245.2 21.5 -240.5 21.5H-231.4C-231.1 24 -229 26 -226.5 26C-224 26 -221.8 24 -221.6 21.5H-138.5C-133.8 21.5 -130 17.7 -130 13C-130 8.3 -133.8 4.5 -138.5 4.5H-218.5C-223.2 4.5 -227 8.3 -227 13V16.1C-229.4 16.3 -231.2 18.2 -231.4 20.5H-240.5C-244.6 20.5 -248 17.1 -248 13C-248 8.3 -251.8 4.5 -256.5 4.5H-307.5V1C-307.5 0.4 -307.9 0 -308.5 0H-316.5C-317.1 0 -317.5 0.4 -317.5 1V4.5H-367.6C-367.8 3.6 -368.6 3 -369.5 3H-375.5C-376.4 3 -377.2 3.6 -377.4 4.5H-392.5C-397.2 4.5 -401 8.3 -401 13C-401 17.7 -397.2 21.5 -392.5 21.5H-341.4C-341.2 22.8 -340.2 23.7 -339 23.9V38.5H-406.5C-411.2 38.5 -415 42.3 -415 47C-415 51.7 -411.2 55.5 -406.5 55.5H-363.4C-363.1 58 -361 60 -358.5 60C-356 60 -353.8 58 -353.6 55.5H-329V91C-329 95.1 -332.4 98.5 -336.5 98.5H-369.6C-369.8 97.1 -371 96 -372.5 96C-374 96 -375.2 97.1 -375.4 98.5H-412.5C-417.2 98.5 -421 102.3 -421 107C-421 111.7 -417.2 115.5 -412.5 115.5H-341.4C-341.2 116.8 -340.2 117.7 -339 117.9V124.5H-353.6C-353.9 122 -356 120 -358.5 120C-361 120 -363.2 122 -363.4 124.5H-392.5C-397.2 124.5 -401 128.3 -401 133C-401 137.7 -397.2 141.5 -392.5 141.5H-336.5C-331.8 141.5 -328 137.7 -328 133V115.5H-307.5V119C-307.5 119.6 -307.1 120 -306.5 120H-298.5C-297.9 120 -297.5 119.6 -297.5 119V115.5H-290.5C-285.8 115.5 -282 111.7 -282 107C-282 102.9 -278.6 99.5 -274.5 99.5H-239V107C-239 111.7 -235.2 115.5 -230.5 115.5H-229V119C-229 123.1 -232.4 126.5 -236.5 126.5H-261.6C-261.8 125.1 -263.1 124 -264.5 124C-265.9 124 -267.2 125.1 -267.4 126.5H-294.5C-299.2 126.5 -303 130.3 -303 135C-303 139.7 -299.2 143.5 -294.5 143.5H-265V154.1C-267.4 154.3 -269.2 156.2 -269.4 158.5H-330.5C-335.2 158.5 -339 162.3 -339 167C-339 171.7 -335.2 175.5 -330.5 175.5H-272.5C-267.8 175.5 -264 171.7 -264 167V163.9C-261.6 163.7 -259.8 161.8 -259.6 159.5H-245.5C-245.3 160.4 -244.5 161 -243.6 161H-237.6C-236.7 161 -235.9 160.4 -235.7 159.5H-228.6C-224.5 159.5 -221.1 162.9 -221.1 167C-221.1 171.7 -217.3 175.5 -212.6 175.5H-191.6V179C-191.6 179.6 -191.2 180 -190.6 180H-182.6C-182 180 -181.6 179.6 -181.6 179V175.5H-110.6C-105.9 175.5 -102.1 171.7 -102.1 167C-102.1 162.3 -105.9 158.5 -110.6 158.5H-139.7C-139.9 157.1 -141.2 156 -142.6 156C-144 156 -145.3 157.1 -145.5 158.5H-164.6C-168.7 158.5 -172.1 155.1 -172.1 151V132H-168.6C-168 132 -167.6 131.6 -167.6 131V127.5H-139V135C-139 139.7 -135.2 143.5 -130.5 143.5H-72.5C-67.8 143.5 -64 139.7 -64 135C-64 130.3 -67.8 126.5 -72.5 126.5H-105.6C-105.9 124 -108 122 -110.5 122C-113 122 -115.2 124 -115.4 126.5H-138V115.5H-63.5V119C-63.5 119.6 -63.1 120 -62.5 120H-54.5C-53.9 120 -53.5 119.6 -53.5 119V115.5H-48.5C-43.8 115.5 -40 111.7 -40 107C-40 102.9 -36.6 99.5 -32.5 99.5H3V107C3 111.7 6.79999 115.5 11.5 115.5H13V119C13 123.1 9.60001 126.5 5.5 126.5H-33.6C-33.8 125.1 -35.1 124 -36.5 124C-37.9 124 -39.2 125.1 -39.4 126.5H-50.5C-55.2 126.5 -59 130.3 -59 135C-59 139.7 -55.2 143.5 -50.5 143.5H-21V158.5H-45.6C-45.9 156 -48 154 -50.5 154C-53 154 -55.2 156 -55.4 158.5H-86.5C-91.2 158.5 -95 162.3 -95 167C-95 171.7 -91.2 175.5 -86.5 175.5H-28.5C-23.8 175.5 -20 171.7 -20 167V159.5H-1.39999C-1.19998 160.4 -0.399994 161 0.5 161H6.5C7.39999 161 8.19998 160.4 8.39999 159.5H15.5C19.6 159.5 23 162.9 23 167C23 171.7 26.8 175.5 31.5 175.5H64.5V179C64.5 179.6 64.9 180 65.5 180H73.5C74.1 180 74.5 179.6 74.5 179V175.5H100.6C100.8 176.9 102.1 178 103.5 178C104.9 178 106.2 176.9 106.4 175.5H133.5C138.2 175.5 142 171.7 142 167C142 162.3 138.2 158.5 133.5 158.5H116.4C116.2 157.1 114.9 156 113.5 156C112.1 156 110.8 157.1 110.6 158.5H77.5C73.4 158.5 70 155.1 70 151V132H73.5C74.1 132 74.5 131.6 74.5 131V127.5H99V135C99 139.7 102.8 143.5 107.5 143.5H169.5C174.2 143.5 178 139.7 178 135C178 130.3 174.2 126.5 169.5 126.5H142.4C142.1 124 140 122 137.5 122C135 122 132.8 124 132.6 126.5H100V115.5H125.5C130.2 115.5 134 111.7 134 107C134 102.3 130.2 98.5 125.5 98.5H100V91C100 86.9 103.4 83.5 107.5 83.5H146.6C146.8 84.9 148.1 86 149.5 86C150.9 86 152.2 84.9 152.4 83.5H191.5C196.2 83.5 200 79.7 200 75C200 70.3 196.2 66.5 191.5 66.5ZM-218.5 5.5H-138.5C-134.4 5.5 -131 8.9 -131 13C-131 17.1 -134.4 20.5 -138.5 20.5H-221.6C-221.8 18.1 -223.7 16.3 -226 16.1V13C-226 8.9 -222.6 5.5 -218.5 5.5ZM-21 167C-21 171.1 -24.4 174.5 -28.5 174.5H-86.5C-90.6 174.5 -94 171.1 -94 167C-94 162.9 -90.6 159.5 -86.5 159.5H-55.4C-55.1 162 -53 164 -50.5 164C-48 164 -45.8 162 -45.6 159.5H-21V167ZM113 64.1C111.7 64.3 110.8 65.3 110.6 66.5H90.5V63C90.5 62.4 90.1 62 89.5 62H81.5C80.9 62 80.5 62.4 80.5 63V66.5H65.5C60.8 66.5 57 70.3 57 75C57 79.1 53.6 82.5 49.5 82.5H14V75C14 70.3 10.2 66.5 5.5 66.5H4V63C4 58.9 7.39999 55.5 11.5 55.5H50.6C50.8 56.9 52.1 58 53.5 58C54.9 58 56.2 56.9 56.4 55.5H71.5C76.2 55.5 80 51.7 80 47C80 42.3 76.2 38.5 71.5 38.5H38V25.9C40.4 25.7 42.2 23.8 42.4 21.5H103V47C103 51.7 106.8 55.5 111.5 55.5H113V64.1ZM4 83.5H13V98.5H4V83.5ZM13 82.5H4V67.5H5.5C9.60001 67.5 13 70.9 13 75V82.5ZM-9.60001 82.5C-9.89999 80 -12 78 -14.5 78C-17 78 -19.2 80 -19.4 82.5H-52.5C-56.6 82.5 -60 79.1 -60 75C-60 71.9 -58.1 69.2 -55.3 68C-54.9 69.1 -53.8 70 -52.5 70C-51 70 -49.8 68.9 -49.6 67.5H3V82.5H-9.60001ZM56.4 54.5C56.2 53.1 54.9 52 53.5 52C52.1 52 50.8 53.1 50.6 54.5H38V39.5H71.5C75.6 39.5 79 42.9 79 47C79 51.1 75.6 54.5 71.5 54.5H56.4ZM104 39.5H113V54.5H111.5C107.4 54.5 104 51.1 104 47V39.5ZM128.6 39.5C128.9 42 131 44 133.5 44C136 44 138.2 42 138.4 39.5H157.5C161.6 39.5 165 42.9 165 47C165 51.1 161.6 54.5 157.5 54.5H114V39.5H128.6ZM113 38.5H104V21.5H113V38.5ZM177 13C177 17.1 173.6 20.5 169.5 20.5H158.4C158.2 19.6 157.4 19 156.5 19H150.5C149.6 19 148.8 19.6 148.6 20.5H104V5.5H169.5C173.6 5.5 177 8.9 177 13ZM45.5 5.5H103V20.5H42.4C42.2 18.1 40.3 16.3 38 16.1V13C38 8.9 41.4 5.5 45.5 5.5ZM-72.5 20.5H-93.6C-93.8 19.1 -95.1 18 -96.5 18C-97.9 18 -99.2 19.1 -99.4 20.5H-116.5C-120.6 20.5 -124 17.1 -124 13C-124 8.9 -120.6 5.5 -116.5 5.5H-29.5V9C-29.5 9.6 -29.1 10 -28.5 10H-20.5C-19.9 10 -19.5 9.6 -19.5 9V5.5H-14.5C-10.4 5.5 -7 8.9 -7 13C-7 17.7 -3.20001 21.5 1.5 21.5H32.6C32.8 23.9 34.7 25.7 37 25.9V38.5H-9.60001C-9.80002 37.6 -10.6 37 -11.5 37H-17.5C-18.4 37 -19.2 37.6 -19.4 38.5H-34.5C-39.2 38.5 -43 42.3 -43 47C-43 51.1 -46.4 54.5 -50.5 54.5H-64V29C-64 24.3 -67.8 20.5 -72.5 20.5ZM-109.6 54.5C-109.9 52 -112 50 -114.5 50C-117 50 -119.2 52 -119.4 54.5H-152.5C-156.6 54.5 -160 51.1 -160 47C-160 42.9 -156.6 39.5 -152.5 39.5H-94.5C-90.4 39.5 -87 42.9 -87 47V54.5H-109.6ZM-236.5 67.5C-232.4 67.5 -229 70.9 -229 75V82.5H-238V67.5H-236.5ZM-238 83.5H-229V98.5H-238V83.5ZM-253.6 82.5C-253.9 80 -256 78 -258.5 78C-261 78 -263.2 80 -263.4 82.5H-294.5C-298.6 82.5 -302 79.1 -302 75C-302 71.9 -300.1 69.2 -297.3 68C-296.9 69.1 -295.8 70 -294.5 70C-293 70 -291.8 68.9 -291.6 67.5H-239V82.5H-253.6ZM-338 23.9C-336.7 23.7 -335.8 22.7 -335.6 21.5H-320.5C-316.4 21.5 -313 24.9 -313 29V54.5H-328V47C-328 42.3 -331.8 38.5 -336.5 38.5H-338V23.9ZM-414 47C-414 42.9 -410.6 39.5 -406.5 39.5H-339V54.5H-353.6C-353.8 52 -355.9 50 -358.5 50C-361.1 50 -363.2 52 -363.4 54.5H-406.5C-410.6 54.5 -414 51.1 -414 47ZM-338 54.5V39.5H-336.5C-332.4 39.5 -329 42.9 -329 47V54.5H-338ZM-400 133C-400 128.9 -396.6 125.5 -392.5 125.5H-363.4C-363.1 128 -361 130 -358.5 130C-356 130 -353.8 128 -353.6 125.5H-339V140.5H-392.5C-396.6 140.5 -400 137.1 -400 133ZM-329 133C-329 137.1 -332.4 140.5 -336.5 140.5H-338V125.5H-329V133ZM-329 124.5H-338V117.9C-336.7 117.7 -335.8 116.7 -335.6 115.5H-329V124.5ZM-274.5 98.5C-279.2 98.5 -283 102.3 -283 107C-283 111.1 -286.4 114.5 -290.5 114.5H-297.5V111C-297.5 110.4 -297.9 110 -298.5 110H-306.5C-307.1 110 -307.5 110.4 -307.5 111V114.5H-335.6C-335.8 113.1 -337.1 112 -338.5 112C-339.9 112 -341.2 113.1 -341.4 114.5H-412.5C-416.6 114.5 -420 111.1 -420 107C-420 102.9 -416.6 99.5 -412.5 99.5H-375.4C-375.2 100.9 -373.9 102 -372.5 102C-371.1 102 -369.8 100.9 -369.6 99.5H-336.5C-331.8 99.5 -328 95.7 -328 91V55.5H-292.5C-287.8 55.5 -284 51.7 -284 47C-284 42.9 -280.6 39.5 -276.5 39.5H-263.4C-263.2 40.4 -262.4 41 -261.5 41H-255.5C-254.6 41 -253.8 40.4 -253.6 39.5H-174.5C-170.4 39.5 -167 42.9 -167 47C-167 51.1 -170.4 54.5 -174.5 54.5H-185.6C-185.8 53.1 -187.1 52 -188.5 52C-189.9 52 -191.2 53.1 -191.4 54.5H-230.5C-235.2 54.5 -239 58.3 -239 63V66.5H-291.6C-291.8 65.1 -293.1 64 -294.5 64C-296.2 64 -297.5 65.3 -297.5 67C-297.5 67 -297.5 67 -297.5 67.1C-300.7 68.3 -303 71.4 -303 75C-303 79.7 -299.2 83.5 -294.5 83.5H-263.4C-263.1 86 -261 88 -258.5 88C-256 88 -253.8 86 -253.6 83.5H-239V98.5H-274.5ZM-230.5 114.5C-234.6 114.5 -238 111.1 -238 107V99.5H-229V114.5H-230.5ZM-215.4 99.5C-215.1 102 -213 104 -210.5 104C-208 104 -205.8 102 -205.6 99.5H-172.5C-168.4 99.5 -165 102.9 -165 107C-165 111.1 -168.4 114.5 -172.5 114.5H-185.6C-185.8 113.6 -186.6 113 -187.5 113H-193.5C-194.4 113 -195.2 113.6 -195.4 114.5H-228V99.5H-215.4ZM-228 119V115.5H-195.4C-195.2 116.4 -194.4 117 -193.5 117H-187.5C-186.6 117 -185.8 116.4 -185.6 115.5H-173V122H-176.5C-177.1 122 -177.5 122.4 -177.5 123V127.1C-180.7 128.3 -183 131.4 -183 135C-183 139.1 -186.4 142.5 -190.5 142.5H-199.6C-199.8 141.6 -200.6 141 -201.5 141H-207.5C-208.4 141 -209.2 141.6 -209.4 142.5H-264V129.9C-262.7 129.7 -261.8 128.7 -261.6 127.5H-236.5C-231.8 127.5 -228 123.7 -228 119ZM-294.5 142.5C-298.6 142.5 -302 139.1 -302 135C-302 130.9 -298.6 127.5 -294.5 127.5H-267.4C-267.2 128.8 -266.2 129.7 -265 129.9V142.5H-294.5ZM-272.5 174.5H-330.5C-334.6 174.5 -338 171.1 -338 167C-338 162.9 -334.6 159.5 -330.5 159.5H-269.4C-269.2 161.9 -267.3 163.7 -265 163.9V167C-265 171.1 -268.4 174.5 -272.5 174.5ZM-164.5 159.5H-145.4C-145.2 160.9 -143.9 162 -142.5 162C-141.1 162 -139.8 160.9 -139.6 159.5H-110.5C-106.4 159.5 -103 162.9 -103 167C-103 171.1 -106.4 174.5 -110.5 174.5H-181.5V171C-181.5 170.4 -181.9 170 -182.5 170H-190.5C-191.1 170 -191.5 170.4 -191.5 171V174.5H-212.5C-216.6 174.5 -220 171.1 -220 167C-220 162.3 -223.8 158.5 -228.5 158.5H-235.6C-235.8 157.6 -236.6 157 -237.5 157H-243.5C-244.4 157 -245.2 157.6 -245.4 158.5H-259.5C-259.7 156.1 -261.6 154.3 -263.9 154.1V143.5H-209.3C-209.1 144.4 -208.3 145 -207.4 145H-201.4C-200.5 145 -199.7 144.4 -199.5 143.5H-190.4C-185.7 143.5 -181.9 139.7 -181.9 135C-181.9 131.9 -180 129.3 -177.4 128.1V131C-177.4 131.6 -177 132 -176.4 132H-172.9V151C-173 155.7 -169.2 159.5 -164.5 159.5ZM-115.4 127.5C-115.1 130 -113 132 -110.5 132C-108 132 -105.8 130 -105.6 127.5H-72.5C-68.4 127.5 -65 130.9 -65 135C-65 139.1 -68.4 142.5 -72.5 142.5H-130.5C-134.6 142.5 -138 139.1 -138 135V127.5H-115.4ZM-139 126.5H-167.5V123C-167.5 122.4 -167.9 122 -168.5 122H-172V115.5C-167.5 115.2 -164 111.5 -164 107C-164 102.3 -167.8 98.5 -172.5 98.5H-205.6C-205.9 96 -208 94 -210.5 94C-213 94 -215.2 96 -215.4 98.5H-228V83.5H-192.5C-187.8 83.5 -184 79.7 -184 75C-184 70.9 -180.6 67.5 -176.5 67.5H-171.5V71C-171.5 71.6 -171.1 72 -170.5 72H-162.5C-161.9 72 -161.5 71.6 -161.5 71V67.5H-87V82.5H-93.6C-93.8 81.1 -95.1 80 -96.5 80C-97.9 80 -99.2 81.1 -99.4 82.5H-130.5C-135.2 82.5 -139 86.3 -139 91V98.5H-150.5C-155.2 98.5 -159 102.3 -159 107C-159 111.7 -155.2 115.5 -150.5 115.5H-139V126.5ZM-86 67.5H-74.5C-70.4 67.5 -67 70.9 -67 75C-67 79.1 -70.4 82.5 -74.5 82.5H-86V67.5ZM-125.6 98.5C-125.8 97.1 -127.1 96 -128.5 96C-129.9 96 -131.2 97.1 -131.4 98.5H-138V91C-138 86.9 -134.6 83.5 -130.5 83.5H-99.4C-99.2 84.9 -97.9 86 -96.5 86C-95.1 86 -93.8 84.9 -93.6 83.5H-87V91C-87 95.1 -90.4 98.5 -94.5 98.5H-125.6ZM-139 99.5V114.5H-150.5C-154.6 114.5 -158 111.1 -158 107C-158 102.9 -154.6 99.5 -150.5 99.5H-139ZM-32.5 98.5C-37.2 98.5 -41 102.3 -41 107C-41 111.1 -44.4 114.5 -48.5 114.5H-53.5V111C-53.5 110.4 -53.9 110 -54.5 110H-62.5C-63.1 110 -63.5 110.4 -63.5 111V114.5H-138V99.5H-131.4C-131.2 100.9 -129.9 102 -128.5 102C-127.1 102 -125.8 100.9 -125.6 99.5H-94.5C-89.8 99.5 -86 95.7 -86 91V83.5H-74.5C-69.8 83.5 -66 79.7 -66 75C-66 70.3 -69.8 66.5 -74.5 66.5H-86V55.5H-50.5C-45.8 55.5 -42 51.7 -42 47C-42 42.9 -38.6 39.5 -34.5 39.5H-19.4C-19.2 40.4 -18.4 41 -17.5 41H-11.5C-10.6 41 -9.80002 40.4 -9.60001 39.5H37V54.5H11.5C6.79999 54.5 3 58.3 3 63V66.5H-49.6C-49.8 65.1 -51.1 64 -52.5 64C-54.2 64 -55.5 65.3 -55.5 67C-55.5 67 -55.5 67 -55.5 67.1C-58.7 68.3 -61 71.4 -61 75C-61 79.7 -57.2 83.5 -52.5 83.5H-19.4C-19.1 86 -17 88 -14.5 88C-12 88 -9.80002 86 -9.60001 83.5H3V98.5H-32.5ZM11.5 114.5C7.39999 114.5 4 111.1 4 107V99.5H13V114.5H11.5ZM64.6 99.5C64.9 102 67 104 69.5 104C72 104 74.2 102 74.4 99.5H99V114.5H44.4C44.2 113.6 43.4 113 42.5 113H36.5C35.6 113 34.8 113.6 34.6 114.5H14V99.5H64.6ZM-50.5 142.5C-54.6 142.5 -58 139.1 -58 135C-58 130.9 -54.6 127.5 -50.5 127.5H-39.4C-39.2 128.9 -37.9 130 -36.5 130C-35.1 130 -33.8 128.9 -33.6 127.5H-21V142.5H-50.5ZM77.5 159.5H110.6C110.8 160.9 112.1 162 113.5 162C114.9 162 116.2 160.9 116.4 159.5H133.5C137.6 159.5 141 162.9 141 167C141 171.1 137.6 174.5 133.5 174.5H106.4C106.2 173.1 104.9 172 103.5 172C102.1 172 100.8 173.1 100.6 174.5H74.5V171C74.5 170.4 74.1 170 73.5 170H65.5C64.9 170 64.5 170.4 64.5 171V174.5H31.5C27.4 174.5 24 171.1 24 167C24 162.3 20.2 158.5 15.5 158.5H8.39999C8.19998 157.6 7.39999 157 6.5 157H0.5C-0.399994 157 -1.19998 157.6 -1.39999 158.5H-20V143.5H34.6C34.8 144.4 35.6 145 36.5 145H42.5C43.4 145 44.2 144.4 44.4 143.5H51.5C56.2 143.5 60 139.7 60 135C60 131.9 61.9 129.3 64.5 128.1V131C64.5 131.6 64.9 132 65.5 132H69V151C69 155.7 72.8 159.5 77.5 159.5ZM132.6 127.5C132.9 130 135 132 137.5 132C140 132 142.2 130 142.4 127.5H169.5C173.6 127.5 177 130.9 177 135C177 139.1 173.6 142.5 169.5 142.5H107.5C103.4 142.5 100 139.1 100 135V127.5H132.6ZM99 126.5H74.5V123C74.5 122.4 74.1 122 73.5 122H65.5C64.9 122 64.5 122.4 64.5 123V127.1C61.3 128.3 59 131.4 59 135C59 139.1 55.6 142.5 51.5 142.5H44.4C44.2 141.6 43.4 141 42.5 141H36.5C35.6 141 34.8 141.6 34.6 142.5H-20V127.5H5.5C10.2 127.5 14 123.7 14 119V115.5H34.6C34.8 116.4 35.6 117 36.5 117H42.5C43.4 117 44.2 116.4 44.4 115.5H99V126.5ZM125.5 99.5C129.6 99.5 133 102.9 133 107C133 111.1 129.6 114.5 125.5 114.5H100V99.5H125.5ZM191.5 82.5H152.4C152.2 81.1 150.9 80 149.5 80C148.1 80 146.8 81.1 146.6 82.5H107.5C102.8 82.5 99 86.3 99 91V98.5H74.4C74.1 96 72 94 69.5 94C67 94 64.8 96 64.6 98.5H14V83.5H49.5C54.2 83.5 58 79.7 58 75C58 70.9 61.4 67.5 65.5 67.5H80.5V71C80.5 71.6 80.9 72 81.5 72H89.5C90.1 72 90.5 71.6 90.5 71V67.5H110.6C110.8 68.9 112.1 70 113.5 70C114.9 70 116.2 68.9 116.4 67.5H168.5C168.7 68.4 169.5 69 170.4 69H176.4C177.3 69 178.1 68.4 178.3 67.5H191.4C195.5 67.5 198.9 70.9 198.9 75C198.9 79.1 195.6 82.5 191.5 82.5Z" fill="#92C5F9"/>
</g>
<mask id="mask1_300_2117" style="mask-type:alpha" maskUnits="userSpaceOnUse" x="0" y="0" width="140" height="80">
<rect width="140" height="80" fill="white"/>
</mask>
<g mask="url(#mask1_300_2117)">
<path d="M35.2843 135.162C73.2286 180.952 141.087 176.504 174.968 136.378L46.898 8.00026C9.40162 37.2789 4.25067 97.724 35.2843 135.162Z" fill="#4394E5"/>
<path d="M61.1989 114.395C90.9848 150.329 139.231 155.321 174.968 136.378L51.5689 12.7038C34.9003 43.9663 37.5237 85.8523 61.1989 114.395Z" fill="#92C5F9"/>
<path d="M23.1907 77.117C23.1907 55.774 30.9331 34.239 46.482 19.2317L163.578 136.57C143.742 155.833 114.5 163.673 87.5296 157.913C51.185 150.137 23.1907 118.459 23.1907 77.117ZM35.2842 135.162C73.2285 180.952 141.087 176.504 174.968 136.378L46.8979 8.00026C9.4975 37.1829 4.15459 97.596 35.2842 135.162Z" fill="#EE0000"/>
<path d="M51.5696 12.6719C50.1939 15.2318 48.9462 17.8876 47.8584 20.5755L163.579 136.57C160.667 139.418 157.532 142.01 154.237 144.346C161.435 142.522 168.442 139.866 175 136.378L51.5696 12.6719Z" fill="#FFCC17"/>
</g>
</svg>
